<svg width="100%" viewBox="0 0 680 680" role="img" xmlns="http://www.w3.org/2000/svg">
  <title style="fill:rgb(0, 0, 0);stroke:none;color:rgb(255, 255, 255);stroke-width:1px;stroke-linecap:butt;stroke-linejoin:miter;opacity:1;font-family:&quot;Anthropic Sans&quot;, -apple-system, &quot;system-ui&quot;, &quot;Segoe UI&quot;, sans-serif;font-size:16px;font-weight:400;text-anchor:start;dominant-baseline:auto">SCF Fire Calibration Shiny App icon</title>
  <desc style="fill:rgb(0, 0, 0);stroke:none;color:rgb(255, 255, 255);stroke-width:1px;stroke-linecap:butt;stroke-linejoin:miter;opacity:1;font-family:&quot;Anthropic Sans&quot;, -apple-system, &quot;system-ui&quot;, &quot;Segoe UI&quot;, sans-serif;font-size:16px;font-weight:400;text-anchor:start;dominant-baseline:auto">A square app icon featuring a stylized flame over a landscape grid, representing fire behavior calibration for the LANDIS-II Social-Climate-Fire extension.</desc>

  <defs>
    <clipPath id="roundClip">
      <rect x="90" y="90" width="500" height="500" rx="80"/>
    </clipPath>
  </defs>

  

  <rect x="90" y="90" width="500" height="500" rx="80" fill="#1b2e1b" style="fill:rgb(27, 46, 27);stroke:none;color:rgb(255, 255, 255);stroke-width:1px;stroke-linecap:butt;stroke-linejoin:miter;opacity:1;font-family:&quot;Anthropic Sans&quot;, -apple-system, &quot;system-ui&quot;, &quot;Segoe UI&quot;, sans-serif;font-size:16px;font-weight:400;text-anchor:start;dominant-baseline:auto"/>

  <g clip-path="url(#roundClip)" style="fill:rgb(0, 0, 0);stroke:none;color:rgb(255, 255, 255);stroke-width:1px;stroke-linecap:butt;stroke-linejoin:miter;opacity:1;font-family:&quot;Anthropic Sans&quot;, -apple-system, &quot;system-ui&quot;, &quot;Segoe UI&quot;, sans-serif;font-size:16px;font-weight:400;text-anchor:start;dominant-baseline:auto">
    <rect x="90" y="90" width="500" height="500" fill="#1b2e1b" style="fill:rgb(27, 46, 27);stroke:none;color:rgb(255, 255, 255);stroke-width:1px;stroke-linecap:butt;stroke-linejoin:miter;opacity:1;font-family:&quot;Anthropic Sans&quot;, -apple-system, &quot;system-ui&quot;, &quot;Segoe UI&quot;, sans-serif;font-size:16px;font-weight:400;text-anchor:start;dominant-baseline:auto"/>

    <line x1="90" y1="340" x2="590" y2="340" stroke="#2a4030" stroke-width="1" style="fill:rgb(0, 0, 0);stroke:rgb(42, 64, 48);color:rgb(255, 255, 255);stroke-width:1px;stroke-linecap:butt;stroke-linejoin:miter;opacity:1;font-family:&quot;Anthropic Sans&quot;, -apple-system, &quot;system-ui&quot;, &quot;Segoe UI&quot;, sans-serif;font-size:16px;font-weight:400;text-anchor:start;dominant-baseline:auto"/>
    <line x1="90" y1="390" x2="590" y2="390" stroke="#2a4030" stroke-width="1" style="fill:rgb(0, 0, 0);stroke:rgb(42, 64, 48);color:rgb(255, 255, 255);stroke-width:1px;stroke-linecap:butt;stroke-linejoin:miter;opacity:1;font-family:&quot;Anthropic Sans&quot;, -apple-system, &quot;system-ui&quot;, &quot;Segoe UI&quot;, sans-serif;font-size:16px;font-weight:400;text-anchor:start;dominant-baseline:auto"/>
    <line x1="90" y1="440" x2="590" y2="440" stroke="#2a4030" stroke-width="1" style="fill:rgb(0, 0, 0);stroke:rgb(42, 64, 48);color:rgb(255, 255, 255);stroke-width:1px;stroke-linecap:butt;stroke-linejoin:miter;opacity:1;font-family:&quot;Anthropic Sans&quot;, -apple-system, &quot;system-ui&quot;, &quot;Segoe UI&quot;, sans-serif;font-size:16px;font-weight:400;text-anchor:start;dominant-baseline:auto"/>
    <line x1="90" y1="490" x2="590" y2="490" stroke="#2a4030" stroke-width="1" style="fill:rgb(0, 0, 0);stroke:rgb(42, 64, 48);color:rgb(255, 255, 255);stroke-width:1px;stroke-linecap:butt;stroke-linejoin:miter;opacity:1;font-family:&quot;Anthropic Sans&quot;, -apple-system, &quot;system-ui&quot;, &quot;Segoe UI&quot;, sans-serif;font-size:16px;font-weight:400;text-anchor:start;dominant-baseline:auto"/>
    <line x1="90" y1="540" x2="590" y2="540" stroke="#2a4030" stroke-width="1" style="fill:rgb(0, 0, 0);stroke:rgb(42, 64, 48);color:rgb(255, 255, 255);stroke-width:1px;stroke-linecap:butt;stroke-linejoin:miter;opacity:1;font-family:&quot;Anthropic Sans&quot;, -apple-system, &quot;system-ui&quot;, &quot;Segoe UI&quot;, sans-serif;font-size:16px;font-weight:400;text-anchor:start;dominant-baseline:auto"/>
    <line x1="90" y1="590" x2="590" y2="590" stroke="#2a4030" stroke-width="1" style="fill:rgb(0, 0, 0);stroke:rgb(42, 64, 48);color:rgb(255, 255, 255);stroke-width:1px;stroke-linecap:butt;stroke-linejoin:miter;opacity:1;font-family:&quot;Anthropic Sans&quot;, -apple-system, &quot;system-ui&quot;, &quot;Segoe UI&quot;, sans-serif;font-size:16px;font-weight:400;text-anchor:start;dominant-baseline:auto"/>
    <line x1="140" y1="340" x2="140" y2="590" stroke="#2a4030" stroke-width="1" style="fill:rgb(0, 0, 0);stroke:rgb(42, 64, 48);color:rgb(255, 255, 255);stroke-width:1px;stroke-linecap:butt;stroke-linejoin:miter;opacity:1;font-family:&quot;Anthropic Sans&quot;, -apple-system, &quot;system-ui&quot;, &quot;Segoe UI&quot;, sans-serif;font-size:16px;font-weight:400;text-anchor:start;dominant-baseline:auto"/>
    <line x1="190" y1="340" x2="190" y2="590" stroke="#2a4030" stroke-width="1" style="fill:rgb(0, 0, 0);stroke:rgb(42, 64, 48);color:rgb(255, 255, 255);stroke-width:1px;stroke-linecap:butt;stroke-linejoin:miter;opacity:1;font-family:&quot;Anthropic Sans&quot;, -apple-system, &quot;system-ui&quot;, &quot;Segoe UI&quot;, sans-serif;font-size:16px;font-weight:400;text-anchor:start;dominant-baseline:auto"/>
    <line x1="240" y1="340" x2="240" y2="590" stroke="#2a4030" stroke-width="1" style="fill:rgb(0, 0, 0);stroke:rgb(42, 64, 48);color:rgb(255, 255, 255);stroke-width:1px;stroke-linecap:butt;stroke-linejoin:miter;opacity:1;font-family:&quot;Anthropic Sans&quot;, -apple-system, &quot;system-ui&quot;, &quot;Segoe UI&quot;, sans-serif;font-size:16px;font-weight:400;text-anchor:start;dominant-baseline:auto"/>
    <line x1="290" y1="340" x2="290" y2="590" stroke="#2a4030" stroke-width="1" style="fill:rgb(0, 0, 0);stroke:rgb(42, 64, 48);color:rgb(255, 255, 255);stroke-width:1px;stroke-linecap:butt;stroke-linejoin:miter;opacity:1;font-family:&quot;Anthropic Sans&quot;, -apple-system, &quot;system-ui&quot;, &quot;Segoe UI&quot;, sans-serif;font-size:16px;font-weight:400;text-anchor:start;dominant-baseline:auto"/>
    <line x1="340" y1="340" x2="340" y2="590" stroke="#2a4030" stroke-width="1" style="fill:rgb(0, 0, 0);stroke:rgb(42, 64, 48);color:rgb(255, 255, 255);stroke-width:1px;stroke-linecap:butt;stroke-linejoin:miter;opacity:1;font-family:&quot;Anthropic Sans&quot;, -apple-system, &quot;system-ui&quot;, &quot;Segoe UI&quot;, sans-serif;font-size:16px;font-weight:400;text-anchor:start;dominant-baseline:auto"/>
    <line x1="390" y1="340" x2="390" y2="590" stroke="#2a4030" stroke-width="1" style="fill:rgb(0, 0, 0);stroke:rgb(42, 64, 48);color:rgb(255, 255, 255);stroke-width:1px;stroke-linecap:butt;stroke-linejoin:miter;opacity:1;font-family:&quot;Anthropic Sans&quot;, -apple-system, &quot;system-ui&quot;, &quot;Segoe UI&quot;, sans-serif;font-size:16px;font-weight:400;text-anchor:start;dominant-baseline:auto"/>
    <line x1="440" y1="340" x2="440" y2="590" stroke="#2a4030" stroke-width="1" style="fill:rgb(0, 0, 0);stroke:rgb(42, 64, 48);color:rgb(255, 255, 255);stroke-width:1px;stroke-linecap:butt;stroke-linejoin:miter;opacity:1;font-family:&quot;Anthropic Sans&quot;, -apple-system, &quot;system-ui&quot;, &quot;Segoe UI&quot;, sans-serif;font-size:16px;font-weight:400;text-anchor:start;dominant-baseline:auto"/>
    <line x1="490" y1="340" x2="490" y2="590" stroke="#2a4030" stroke-width="1" style="fill:rgb(0, 0, 0);stroke:rgb(42, 64, 48);color:rgb(255, 255, 255);stroke-width:1px;stroke-linecap:butt;stroke-linejoin:miter;opacity:1;font-family:&quot;Anthropic Sans&quot;, -apple-system, &quot;system-ui&quot;, &quot;Segoe UI&quot;, sans-serif;font-size:16px;font-weight:400;text-anchor:start;dominant-baseline:auto"/>
    <line x1="540" y1="340" x2="540" y2="590" stroke="#2a4030" stroke-width="1" style="fill:rgb(0, 0, 0);stroke:rgb(42, 64, 48);color:rgb(255, 255, 255);stroke-width:1px;stroke-linecap:butt;stroke-linejoin:miter;opacity:1;font-family:&quot;Anthropic Sans&quot;, -apple-system, &quot;system-ui&quot;, &quot;Segoe UI&quot;, sans-serif;font-size:16px;font-weight:400;text-anchor:start;dominant-baseline:auto"/>

    <ellipse cx="340" cy="590" rx="200" ry="60" fill="#2a5a2a" opacity="0.5" style="fill:rgb(42, 90, 42);stroke:none;color:rgb(255, 255, 255);stroke-width:1px;stroke-linecap:butt;stroke-linejoin:miter;opacity:0.5;font-family:&quot;Anthropic Sans&quot;, -apple-system, &quot;system-ui&quot;, &quot;Segoe UI&quot;, sans-serif;font-size:16px;font-weight:400;text-anchor:start;dominant-baseline:auto"/>
    <ellipse cx="340" cy="590" rx="140" ry="40" fill="#326a32" opacity="0.5" style="fill:rgb(50, 106, 50);stroke:none;color:rgb(255, 255, 255);stroke-width:1px;stroke-linecap:butt;stroke-linejoin:miter;opacity:0.5;font-family:&quot;Anthropic Sans&quot;, -apple-system, &quot;system-ui&quot;, &quot;Segoe UI&quot;, sans-serif;font-size:16px;font-weight:400;text-anchor:start;dominant-baseline:auto"/>

    <path d="M200 590 Q220 540 240 500 Q260 460 250 420 Q270 440 265 475 Q290 430 285 395 Q310 440 300 490 Q320 450 315 410 Q340 455 335 500 Q350 460 345 420 Q360 455 365 495 Q375 445 380 410 Q390 455 385 490 Q400 450 410 420 Q415 460 408 500 Q420 470 428 440 Q435 480 430 520 Q450 490 460 465 Q462 510 455 545 Q470 525 480 510 Q480 555 460 590 Z" fill="#3a8a3a" opacity="0.6" style="fill:rgb(58, 138, 58);stroke:none;color:rgb(255, 255, 255);stroke-width:1px;stroke-linecap:butt;stroke-linejoin:miter;opacity:0.6;font-family:&quot;Anthropic Sans&quot;, -apple-system, &quot;system-ui&quot;, &quot;Segoe UI&quot;, sans-serif;font-size:16px;font-weight:400;text-anchor:start;dominant-baseline:auto"/>

    <path d="M210 590 Q230 558 248 528 Q258 505 252 478 Q270 502 267 530 Q285 505 282 478 Q295 502 292 528 Q306 505 302 478 Q320 510 316 540 Q326 520 322 498 Q336 520 332 545 Q342 528 338 510 Q350 528 346 550 Q356 535 352 516 Q362 535 358 558 Q370 542 366 522 Q376 542 372 562 Q382 548 378 530 Q388 548 384 566 Q396 552 392 534 Q402 552 398 572 Q408 558 404 540 Q420 558 418 578 Q432 562 432 590 Z" fill="#4aaa4a" opacity="0.5" style="fill:rgb(74, 170, 74);stroke:none;color:rgb(255, 255, 255);stroke-width:1px;stroke-linecap:butt;stroke-linejoin:miter;opacity:0.5;font-family:&quot;Anthropic Sans&quot;, -apple-system, &quot;system-ui&quot;, &quot;Segoe UI&quot;, sans-serif;font-size:16px;font-weight:400;text-anchor:start;dominant-baseline:auto"/>

    <path d="M340 520 &#10;             C 325 510, 300 490, 295 465&#10;             C 290 445, 305 430, 300 415&#10;             C 295 400, 285 390, 280 370&#10;             C 290 378, 300 388, 305 400&#10;             C 302 382, 295 362, 298 340&#10;             C 310 360, 318 382, 315 405&#10;             C 320 388, 316 368, 320 350&#10;             C 330 372, 335 398, 330 422&#10;             C 338 405, 340 385, 345 368&#10;             C 348 390, 348 415, 342 438&#10;             C 350 420, 355 400, 360 382&#10;             C 362 405, 360 430, 354 452&#10;             C 362 436, 368 416, 375 400&#10;             C 376 425, 372 450, 364 470&#10;             C 372 454, 380 434, 385 415&#10;             C 386 440, 382 462, 372 480&#10;             C 380 468, 388 450, 392 432&#10;             C 392 458, 386 480, 375 495&#10;             C 382 483, 390 465, 395 448&#10;             C 394 474, 388 498, 375 512&#10;             C 382 500, 392 480, 396 462&#10;             C 394 490, 388 515, 375 528&#10;             C 370 520, 360 515, 340 520Z" fill="#e85820" opacity="0.95" style="fill:rgb(232, 88, 32);stroke:none;color:rgb(255, 255, 255);stroke-width:1px;stroke-linecap:butt;stroke-linejoin:miter;opacity:0.95;font-family:&quot;Anthropic Sans&quot;, -apple-system, &quot;system-ui&quot;, &quot;Segoe UI&quot;, sans-serif;font-size:16px;font-weight:400;text-anchor:start;dominant-baseline:auto"/>

    <path d="M340 510 &#10;             C 328 500, 310 482, 308 462&#10;             C 306 445, 318 432, 315 418&#10;             C 312 408, 305 400, 308 385&#10;             C 316 396, 322 410, 320 424&#10;             C 325 410, 322 395, 326 382&#10;             C 334 396, 338 414, 335 430&#10;             C 340 416, 342 400, 347 388&#10;             C 348 404, 346 422, 342 438&#10;             C 348 424, 354 408, 358 394&#10;             C 358 412, 354 432, 348 448&#10;             C 355 434, 362 415, 365 400&#10;             C 364 420, 360 442, 354 456&#10;             C 360 444, 366 426, 370 410&#10;             C 370 432, 366 455, 358 468&#10;             C 365 456, 370 438, 373 422&#10;             C 372 444, 368 464, 360 478&#10;             C 365 466, 370 450, 372 434&#10;             C 372 456, 368 475, 360 488&#10;             C 355 496, 348 502, 340 510Z" fill="#f5a020" opacity="0.9" style="fill:rgb(245, 160, 32);stroke:none;color:rgb(255, 255, 255);stroke-width:1px;stroke-linecap:butt;stroke-linejoin:miter;opacity:0.9;font-family:&quot;Anthropic Sans&quot;, -apple-system, &quot;system-ui&quot;, &quot;Segoe UI&quot;, sans-serif;font-size:16px;font-weight:400;text-anchor:start;dominant-baseline:auto"/>

    <path d="M340 495 &#10;             C 330 485, 320 470, 320 455&#10;             C 320 442, 328 432, 326 420&#10;             C 330 430, 333 442, 332 455&#10;             C 336 442, 337 428, 340 416&#10;             C 343 428, 344 442, 342 455&#10;             C 346 442, 348 428, 351 416&#10;             C 352 430, 352 444, 348 457&#10;             C 354 444, 358 428, 360 416&#10;             C 360 432, 356 448, 352 460&#10;             C 356 450, 360 436, 362 422&#10;             C 362 438, 358 455, 352 466&#10;             C 356 456, 362 440, 364 426&#10;             C 363 444, 358 460, 350 472&#10;             C 345 480, 342 488, 340 495Z" fill="#ffe060" opacity="0.85" style="fill:rgb(255, 224, 96);stroke:none;color:rgb(255, 255, 255);stroke-width:1px;stroke-linecap:butt;stroke-linejoin:miter;opacity:0.85;font-family:&quot;Anthropic Sans&quot;, -apple-system, &quot;system-ui&quot;, &quot;Segoe UI&quot;, sans-serif;font-size:16px;font-weight:400;text-anchor:start;dominant-baseline:auto"/>

    <ellipse cx="340" cy="492" rx="18" ry="24" fill="#fff5a0" opacity="0.7" style="fill:rgb(255, 245, 160);stroke:none;color:rgb(255, 255, 255);stroke-width:1px;stroke-linecap:butt;stroke-linejoin:miter;opacity:0.7;font-family:&quot;Anthropic Sans&quot;, -apple-system, &quot;system-ui&quot;, &quot;Segoe UI&quot;, sans-serif;font-size:16px;font-weight:400;text-anchor:start;dominant-baseline:auto"/>

    <circle cx="190" cy="560" r="6" fill="#e85820" opacity="0.7" style="fill:rgb(232, 88, 32);stroke:none;color:rgb(255, 255, 255);stroke-width:1px;stroke-linecap:butt;stroke-linejoin:miter;opacity:0.7;font-family:&quot;Anthropic Sans&quot;, -apple-system, &quot;system-ui&quot;, &quot;Segoe UI&quot;, sans-serif;font-size:16px;font-weight:400;text-anchor:start;dominant-baseline:auto"/>
    <circle cx="210" cy="540" r="4" fill="#f5a020" opacity="0.6" style="fill:rgb(245, 160, 32);stroke:none;color:rgb(255, 255, 255);stroke-width:1px;stroke-linecap:butt;stroke-linejoin:miter;opacity:0.6;font-family:&quot;Anthropic Sans&quot;, -apple-system, &quot;system-ui&quot;, &quot;Segoe UI&quot;, sans-serif;font-size:16px;font-weight:400;text-anchor:start;dominant-baseline:auto"/>
    <circle cx="430" cy="555" r="5" fill="#e85820" opacity="0.65" style="fill:rgb(232, 88, 32);stroke:none;color:rgb(255, 255, 255);stroke-width:1px;stroke-linecap:butt;stroke-linejoin:miter;opacity:0.65;font-family:&quot;Anthropic Sans&quot;, -apple-system, &quot;system-ui&quot;, &quot;Segoe UI&quot;, sans-serif;font-size:16px;font-weight:400;text-anchor:start;dominant-baseline:auto"/>
    <circle cx="460" cy="540" r="4" fill="#f5a020" opacity="0.55" style="fill:rgb(245, 160, 32);stroke:none;color:rgb(255, 255, 255);stroke-width:1px;stroke-linecap:butt;stroke-linejoin:miter;opacity:0.55;font-family:&quot;Anthropic Sans&quot;, -apple-system, &quot;system-ui&quot;, &quot;Segoe UI&quot;, sans-serif;font-size:16px;font-weight:400;text-anchor:start;dominant-baseline:auto"/>
    <circle cx="270" cy="575" r="4" fill="#e85820" opacity="0.5" style="fill:rgb(232, 88, 32);stroke:none;color:rgb(255, 255, 255);stroke-width:1px;stroke-linecap:butt;stroke-linejoin:miter;opacity:0.5;font-family:&quot;Anthropic Sans&quot;, -apple-system, &quot;system-ui&quot;, &quot;Segoe UI&quot;, sans-serif;font-size:16px;font-weight:400;text-anchor:start;dominant-baseline:auto"/>
    <circle cx="400" cy="570" r="4" fill="#f08030" opacity="0.55" style="fill:rgb(240, 128, 48);stroke:none;color:rgb(255, 255, 255);stroke-width:1px;stroke-linecap:butt;stroke-linejoin:miter;opacity:0.55;font-family:&quot;Anthropic Sans&quot;, -apple-system, &quot;system-ui&quot;, &quot;Segoe UI&quot;, sans-serif;font-size:16px;font-weight:400;text-anchor:start;dominant-baseline:auto"/>

    <circle cx="168" cy="255" r="3" fill="#5aaad4" opacity="0.9" style="fill:rgb(90, 170, 212);stroke:none;color:rgb(255, 255, 255);stroke-width:1px;stroke-linecap:butt;stroke-linejoin:miter;opacity:0.9;font-family:&quot;Anthropic Sans&quot;, -apple-system, &quot;system-ui&quot;, &quot;Segoe UI&quot;, sans-serif;font-size:16px;font-weight:400;text-anchor:start;dominant-baseline:auto"/>
    <circle cx="210" cy="232" r="3" fill="#5aaad4" opacity="0.9" style="fill:rgb(90, 170, 212);stroke:none;color:rgb(255, 255, 255);stroke-width:1px;stroke-linecap:butt;stroke-linejoin:miter;opacity:0.9;font-family:&quot;Anthropic Sans&quot;, -apple-system, &quot;system-ui&quot;, &quot;Segoe UI&quot;, sans-serif;font-size:16px;font-weight:400;text-anchor:start;dominant-baseline:auto"/>
    <circle cx="255" cy="260" r="3" fill="#5aaad4" opacity="0.9" style="fill:rgb(90, 170, 212);stroke:none;color:rgb(255, 255, 255);stroke-width:1px;stroke-linecap:butt;stroke-linejoin:miter;opacity:0.9;font-family:&quot;Anthropic Sans&quot;, -apple-system, &quot;system-ui&quot;, &quot;Segoe UI&quot;, sans-serif;font-size:16px;font-weight:400;text-anchor:start;dominant-baseline:auto"/>
    <circle cx="300" cy="245" r="3" fill="#5aaad4" opacity="0.9" style="fill:rgb(90, 170, 212);stroke:none;color:rgb(255, 255, 255);stroke-width:1px;stroke-linecap:butt;stroke-linejoin:miter;opacity:0.9;font-family:&quot;Anthropic Sans&quot;, -apple-system, &quot;system-ui&quot;, &quot;Segoe UI&quot;, sans-serif;font-size:16px;font-weight:400;text-anchor:start;dominant-baseline:auto"/>
    <circle cx="340" cy="222" r="3" fill="#5aaad4" opacity="0.9" style="fill:rgb(90, 170, 212);stroke:none;color:rgb(255, 255, 255);stroke-width:1px;stroke-linecap:butt;stroke-linejoin:miter;opacity:0.9;font-family:&quot;Anthropic Sans&quot;, -apple-system, &quot;system-ui&quot;, &quot;Segoe UI&quot;, sans-serif;font-size:16px;font-weight:400;text-anchor:start;dominant-baseline:auto"/>
    <circle cx="385" cy="248" r="3" fill="#5aaad4" opacity="0.9" style="fill:rgb(90, 170, 212);stroke:none;color:rgb(255, 255, 255);stroke-width:1px;stroke-linecap:butt;stroke-linejoin:miter;opacity:0.9;font-family:&quot;Anthropic Sans&quot;, -apple-system, &quot;system-ui&quot;, &quot;Segoe UI&quot;, sans-serif;font-size:16px;font-weight:400;text-anchor:start;dominant-baseline:auto"/>
    <circle cx="430" cy="230" r="3" fill="#5aaad4" opacity="0.9" style="fill:rgb(90, 170, 212);stroke:none;color:rgb(255, 255, 255);stroke-width:1px;stroke-linecap:butt;stroke-linejoin:miter;opacity:0.9;font-family:&quot;Anthropic Sans&quot;, -apple-system, &quot;system-ui&quot;, &quot;Segoe UI&quot;, sans-serif;font-size:16px;font-weight:400;text-anchor:start;dominant-baseline:auto"/>
    <circle cx="475" cy="258" r="3" fill="#5aaad4" opacity="0.9" style="fill:rgb(90, 170, 212);stroke:none;color:rgb(255, 255, 255);stroke-width:1px;stroke-linecap:butt;stroke-linejoin:miter;opacity:0.9;font-family:&quot;Anthropic Sans&quot;, -apple-system, &quot;system-ui&quot;, &quot;Segoe UI&quot;, sans-serif;font-size:16px;font-weight:400;text-anchor:start;dominant-baseline:auto"/>
    <circle cx="512" cy="238" r="3" fill="#5aaad4" opacity="0.9" style="fill:rgb(90, 170, 212);stroke:none;color:rgb(255, 255, 255);stroke-width:1px;stroke-linecap:butt;stroke-linejoin:miter;opacity:0.9;font-family:&quot;Anthropic Sans&quot;, -apple-system, &quot;system-ui&quot;, &quot;Segoe UI&quot;, sans-serif;font-size:16px;font-weight:400;text-anchor:start;dominant-baseline:auto"/>

    <line x1="150" y1="278" x2="530" y2="215" stroke="#5aaad4" stroke-width="2" stroke-linecap="round" fill="none" opacity="0.75" style="fill:none;stroke:rgb(90, 170, 212);color:rgb(255, 255, 255);stroke-width:2px;stroke-linecap:round;stroke-linejoin:miter;opacity:0.75;font-family:&quot;Anthropic Sans&quot;, -apple-system, &quot;system-ui&quot;, &quot;Segoe UI&quot;, sans-serif;font-size:16px;font-weight:400;text-anchor:start;dominant-baseline:auto"/>

    <line x1="150" y1="310" x2="530" y2="310" stroke="#3a6a3a" stroke-width="0.8" stroke-dasharray="6 4" fill="none" opacity="0.5" style="fill:none;stroke:rgb(58, 106, 58);color:rgb(255, 255, 255);stroke-width:0.8px;stroke-dasharray:6px, 4px;stroke-linecap:butt;stroke-linejoin:miter;opacity:0.5;font-family:&quot;Anthropic Sans&quot;, -apple-system, &quot;system-ui&quot;, &quot;Segoe UI&quot;, sans-serif;font-size:16px;font-weight:400;text-anchor:start;dominant-baseline:auto"/>

    <text x="340" y="170" text-anchor="middle" font-family="monospace" font-size="17" fill="#7abada" opacity="0.9" font-weight="500" style="fill:rgb(122, 186, 218);stroke:none;color:rgb(255, 255, 255);stroke-width:1px;stroke-linecap:butt;stroke-linejoin:miter;opacity:0.9;font-family:monospace;font-size:17px;font-weight:500;text-anchor:middle;dominant-baseline:auto">FWI  ·  ignition  ·  spread</text>
  </g>

  <rect x="90" y="90" width="500" height="500" rx="80" fill="none" stroke="#4a7a4a" stroke-width="2.5" style="fill:none;stroke:rgb(74, 122, 74);color:rgb(255, 255, 255);stroke-width:2.5px;stroke-linecap:butt;stroke-linejoin:miter;opacity:1;font-family:&quot;Anthropic Sans&quot;, -apple-system, &quot;system-ui&quot;, &quot;Segoe UI&quot;, sans-serif;font-size:16px;font-weight:400;text-anchor:start;dominant-baseline:auto"/>

  <text x="340" y="644" text-anchor="middle" font-family="sans-serif" font-size="28" fill="#3a6a3a" font-weight="500" letter-spacing="2" style="fill:rgb(58, 106, 58);stroke:none;color:rgb(255, 255, 255);stroke-width:1px;stroke-linecap:butt;stroke-linejoin:miter;opacity:1;font-family:sans-serif;font-size:28px;font-weight:500;text-anchor:middle;dominant-baseline:auto">SCF  CALIBRATION</text>
</svg>